<svg width="512" height="512" viewBox="0 0 512 512" fill="none" xmlns="http://www.w3.org/2000/svg">
<g clip-path="url(#clip0_1404:5025)">
<path d="M-1.11901e-05 256C-5.01011e-06 397.382 114.618 512 256 512C397.382 512 512 397.382 512 256C512 114.618 397.382 -1.73701e-05 256 -1.11901e-05C114.618 -5.01011e-06 -1.73701e-05 114.618 -1.11901e-05 256ZM469.333 256C469.333 373.818 373.818 469.333 256 469.333C138.182 469.333 42.667 373.818 42.667 256C42.667 138.182 138.182 42.667 256 42.667C373.818 42.667 469.333 138.182 469.333 256Z" fill="#ffb50e"/>
<path d="M198.248 164.418L289.83 256L198.248 347.582C189.917 355.913 189.917 369.421 198.248 377.752C206.579 386.083 220.087 386.083 228.418 377.752L335.085 271.085C343.416 262.754 343.416 249.246 335.085 240.915L228.418 134.248C220.087 125.917 206.579 125.917 198.248 134.248C189.917 142.58 189.917 156.087 198.248 164.418Z" fill="#ffb50e"/>
</g>
<defs>
<clipPath id="clip0_1404:5025">
<rect width="512" height="512" fill="#ffb50e" transform="translate(0 512) rotate(-90)"/>
</clipPath>
</defs>
</svg>
