<svg id="Layer_1" data-name="Layer 1" xmlns="http://www.w3.org/2000/svg" viewBox="0 0 512 512"><defs><style>.cls-1{fill:#ffffff;}</style></defs><title>headphones-handdrawn</title><path class="cls-1" d="M357.71,110.93a44.47,44.47,0,0,0,17.22,7.32,24.21,24.21,0,0,0,9.33.26c1.19-.16-3.23-.47-1.05-.6a47.73,47.73,0,0,0,12-2.25c3.94-1.39,6.53-3,4.74-2.34-4.67,1.31,4.75-2,10.69-7.74-6.37,5-12.54,8.3-22.33,9.49a36.18,36.18,0,0,0,12-3.7,28,28,0,0,0,4.67-3,62.8,62.8,0,0,0,5-4.24l1.93-1.92,1.87-2,5.06-5.33-5.66,5.58,11.88-15.19-15.33,15.63a37.55,37.55,0,0,1-18.67,10c0-.29,3.49-1.45-.86-.7-5.74.8-14.7.59-22.88-3.92-4.31-2.45-7.08-4.78-10.37-6.9s-6.41-4.1-9.39-5.8c-9.82-5.72-17.45-9-22-11.17A119.31,119.31,0,0,0,306,75.27c-4.29-1.2-8.66-2.26-13-3.15V72A173.37,173.37,0,0,1,331.49,84a163.87,163.87,0,0,0-23.82-8.88A179.15,179.15,0,0,0,247.8,68.7C232,69.33,212,73.82,221,71.14a160.28,160.28,0,0,1,26.28-4.91c1.21-.13,5.75-.37,8.76-.37l-1.13.36a181.16,181.16,0,0,1,19.52.22c-7-.68-10.9-.81-11.79-.83-.38-.27-1.15-.47-.83-.65.91-.4-3.82-1.41,10.57-1.07,5.87.17,15.12,1.36,16.62,1.42a74.07,74.07,0,0,1,12,2.12c6.45,1.44,15.34,4.09,17.63,4.8,2.92.82.44-.38.23-.8l5.21,1.73a177.71,177.71,0,0,0-23.66-7.22l-1.95-.05a169.55,169.55,0,0,0-64-2.67c2.33-.46,3.41-.66,4.73-.84-5.89.59-10.82,1.39-15,2.13a37.36,37.36,0,0,0-5.71.41,100.45,100.45,0,0,0-11.1,2.61,206.35,206.35,0,0,0-30.1,11.77c-4.75,2.34-9.4,4.84-13.94,7.57-2.24,1.41-4.55,2.73-6.74,4.26s-4.48,3.07-6.29,4.11a26.2,26.2,0,0,1-26.91-1.19,33.86,33.86,0,0,1-6.2-5.35l-5.42-5.47-4.76-4.81c-.13-.2-.56-.41-.43-.6l.62-.57,1.24-1.14L111,73.84c1.73-1.65,3.16-2.74,5.34-4.61s4.59-3.78,6.94-5.55a230.4,230.4,0,0,1,76.68-38.76c5-1.58,11.17-2.85,15.72-4,4.6-.92,7.58-1.62,6.18-1.7s2.22-1,15.58-2.36l10.28-.76a229.67,229.67,0,0,1,77.22,9.45c3.71,1.1,7.24,2.53,10.85,3.78l-1.59-.43a228.47,228.47,0,0,1,67.53,37.37c-1.84-2.13,4,2,12,9.23,2.34,1.38,3.93,2.15,6.59,3.93,1.82,1.23,1.18.28-2-2.92a169.25,169.25,0,0,0-18-15.55,236.56,236.56,0,0,0-36.63-23A216.15,216.15,0,0,0,338.5,27a239.46,239.46,0,0,0-70.83-13.13l-8.42-.16-8.21.3a241.47,241.47,0,0,0-25.64,2.65c1.1-.52.36-.72-2.87-.28a160.64,160.64,0,0,0-17.82,3.41A233.47,233.47,0,0,0,178.52,28a230.66,230.66,0,0,0-40.12,19.7,210.5,210.5,0,0,0-18.5,12.69c-3.07,2.22-5.81,4.56-8.87,7.07s-6,5.24-9,7.91a2.75,2.75,0,0,1-.5.31l3.56-3.32a220.77,220.77,0,0,1,22.53-18,228.93,228.93,0,0,1,76.18-34.91l8.81-1.82a233.43,233.43,0,0,1,26.76-3.87,5.47,5.47,0,0,0-2.66-.39c-6.23.22-13.73.74-21.14,1.68,13.77-2.87,13.7-2.6,23.3-3.15l7.81-.44,12.45-.37c4.53.12,9.3,0,13.82.28,9,.37,17.09,1.3,20.46,1.51,1.85.11,4.91.54,7.78,1a228.8,228.8,0,0,1,38.89,10.64c22.71,8.55,38.66,18,33.54,14C370,35.9,383.5,42,393.88,49.24c10,6.86,15.68,11.57,19.25,14.34a42.51,42.51,0,0,0,5.7,4c.53.25-1.51-2,.51-.26C428.1,75,424,70,414.71,61.56c3.09,2.38,5.69,4.46,8.17,6.67-4.21-4.25-8.35-7.84-13.38-12.09S396,46.06,392.66,43.67A223.36,223.36,0,0,0,338,15.9a221.35,221.35,0,0,0-40.7-10.09c.84-.23,5.2.14,4.53-.32S295.53,3.23,276,1.63l3.85-.54A251.22,251.22,0,0,0,242,.41a186.11,186.11,0,0,0-37.9,5.51C198,7.3,196.15,8.47,192.39,9.69l1.18-.13A260.53,260.53,0,0,0,160.8,21a204,204,0,0,0-31.68,16.42c-5.63,3.59-11.31,7.43-16.58,11.56-2.69,2-5.28,4.07-7.73,6.2L102,57.61c-1.14,1-2.3,1.91-3.34,2.91l-6.31,5.84L83,75l-1.29,1.18c-.31.4-1.28.78-.5,1.21l2.31,2.43-7.85,8.7a204.46,204.46,0,0,0-21.19,28c-4.08,6.52-7.91,13.38-11.74,21.1-.11-.58.72-3,.23-2.77s-2.4,3-7.16,13.31l.19-2.34c-1.84,3.58-3.37,7.45-4.86,11s-2.79,6.71-3.72,9.16A149.54,149.54,0,0,0,20.65,187a57.5,57.5,0,0,0-1,7.07l.34-.62c-1.83,6.56-3.15,15.06-4.2,19.61-2.36,10.82-3.81,29.32-3.26,42.88,0,1.83,0,4.29.06,6.61H0c0,13.38,0,26.76,0,40,0,6.48,0,13.17,0,19.77l.18,2.2.7-23.65.18-5.91.18-8.52.35-22.27,11,.18c0,13.49,0,27,0,40.44,0,2.46,0,4.91.05,7.36-.05-5-.14-10-.26-11.66-.2-2.92-.49-.28-.82,0,0,1.3,0-.63-.12-5.26,0,10.22,0,17-.06,23.73l.37,1.84c-.09,10.79-.17,20.4-.26,30.2s.1,19.9.16,31.71l-.24-4.61c0,5.69-.09,10.47-.12,14.51a46.19,46.19,0,0,0-.77,5.44c-.12,1.56-.28,8.15-.25,10.88.21,21.16-.17,40.63-.15,61.05a45.93,45.93,0,0,0,.7,8.5,36.12,36.12,0,0,0,2.54,7.69c5.1,11.47,17.22,20.16,30.35,20.36l34.66-.15,21.24-.19c3.46,0,7.13-.12,10.9-.4a65.52,65.52,0,0,0,10.89-2.28,60.32,60.32,0,0,0,39.89-41.62c1.19-4.69,1.41-7.82.87-6.5-.78,1.46.74-2.48.72-15.78,0-3.22,0-6.75,0-10.13q0-38.39,0-76.79c.06-3.79.12-7.52.18-11.27l.09,1.61c-.08-6.17.22-12.7-1.11-19.1a62.78,62.78,0,0,0-6.56-18.2,59.73,59.73,0,0,0-28.29-25.68c2.22,1.74-4.06-1.55-14.4-3.14-2.61.12-4.26.71-7.21,1.05q-3,.38,3.15.91a58.77,58.77,0,0,1,20.76,6,56.27,56.27,0,0,1,26.38,29.24,54.77,54.77,0,0,1,3.39,13,94.16,94.16,0,0,1,.71,12.54c.38,22.29.69,44.88.75,70.25.05,5.49.1,11,.15,16.2.05,3.89.11,7.73.16,11.82a131.44,131.44,0,0,1-.19,13.3c-.21-1.16-.55-.49-1.14,2.58a62.44,62.44,0,0,1-5.34,16.4,55.62,55.62,0,0,1-34.81,29.38c-6.73,2-13.65,2.26-20.74,2.1l-42.33-.08a1.33,1.33,0,0,1-.43-.11l4.31-.06,26.52-.07c8.8-.21,17.81.46,26.28-.81,17.16-2.55,32.58-14.19,40.44-29.9a55.45,55.45,0,0,0,3.39-7.76,60.88,60.88,0,0,0,2.7-12.48c.28-4.24.32-8.61.27-13a5.24,5.24,0,0,0-.57,2.54,67.24,67.24,0,0,1-3.34,19.38,57.79,57.79,0,0,0,1.56-12l.5-9.55c0-1.36.08-4.83.13-7.54.1-13.92-.33-38.59-.76-45-.12-1.78-.3-4.74-.3-7.52,0-12.82,0-25.79,0-38.65A66,66,0,0,0,156,323.92a51.42,51.42,0,0,0-3.74-10.62c-2.65-5.38-4.7-7.14-3.49-4.67.7,1.77-.65,0-3.08-3a71.16,71.16,0,0,0-10.39-10.25,43.61,43.61,0,0,0-17.14-8.5c-3.52-.79-4.86-.71-5.49-.53-.46.12,1.8.7-.25.52-4.45-.53-5.47.08-4.18.24.65.09,1.85.33,3.44.72a42,42,0,0,1,5.82,1.54,50.26,50.26,0,0,0-7.73-1.11,53.1,53.1,0,0,1,12.65,3.71c4.46,1.83,10.78,6.16,12.8,8.45a49.29,49.29,0,0,1,14.49,29.7c.12,2.06.24,3.73.28,6.13s0,4.9,0,7.33c.06,12.43.13,25.11.2,39-.72-1.49-1.58-16.17-1.72,20.14l-.81-3.51c-.14,12.86-.17,26.52-.41,34.89l-.19,8.88c0,1.63-.1,2.69-.17,3.78a26.23,26.23,0,0,1-.28,3.31,47.2,47.2,0,0,1-3.34,12.51,81.77,81.77,0,0,1-3.55,7.7l.64-.54a47.78,47.78,0,0,1-8.86,9.5,39.39,39.39,0,0,1-9.41,5.58,42.93,42.93,0,0,1-10.72,2.86,46,46,0,0,1-6.29.47l-8.68,0c-7.42,0-15,0-22.34,0,0-1.14,0-2.33,0-3.46-.06-3.32-.34-4.44-.52-6.55l-.14.63c.08-6.29.09-14.24.27-18.55.41-10.29.54-27,.22-40-.05-2.09-.05-5.08-.05-7.66,0-13.36,0-26.75,0-40.06,0-11.53-.16-22.93-.19-34.47,0-9.74,0-20.17.1-29.27.09-7,.14-13.82.16-20.67,2-.16,5.35-.29,8.45-.45l-8.44-.16c0-.17,0-.35,0-.52,5.49-.41,3.6-1,20.23-1.12l-7.49-.14,18-2.15H67.16c0-.29,3-.64-.58-.86-4.76-.3-11.75-.38-19.22-.38l-16.7.09c-.1-5.69-.19-11.55-.24-17.49l3.15,0c.05.3.1.6.15.84.1.47.24,0,.34-.84l27.93.2c3.65,0,8.79-.08,11.59-.18,17.43-.62,9.72-1.66-12.06-2.13l-23.32-.29H34.27c.27-3.67.53-8.47.81-9.17.78-1.75.56-11.12,1.24-17.53.54-5.42.55-8.55.58-10.71s.08-5.79.35-9.87c.19-1.65,1.2-7.55,1.56-9.09,2.54-10.23,4.94-20.53,7.74-28.64-1,1.75-1.94,3.44-2.67,4.89l-2.4,4.32c-1.71,5.49-3.13,12.65-4.5,18.6-1.88,8.69-2.32,14.6-3.09,21.77a340.1,340.1,0,0,0-.79,34.41c0,.27.09.62.14,1H30.41c0-5.76-.05-11.52,0-17.06A254.77,254.77,0,0,1,36,196.08c1.06-5.93,3.67-14.16,2.56-12.85-.47.75-.18-1.48,2.52-8.76l2-5.63A237.52,237.52,0,0,1,62.56,128.3c1.15-1.9,2.31-3.75,3.62-5.52l-.44.84A231.89,231.89,0,0,1,92.3,89c2.76,2.84,5.55,5.68,8.3,8.52,3.75,3.78,3.94,4.18,7.57,7.61a44.66,44.66,0,0,0,22.75,11.2A43.12,43.12,0,0,0,156.26,113,44.67,44.67,0,0,0,162,109.8l3.79-2.54c2.24-1.58,4.58-3,6.89-4.45a166.67,166.67,0,0,1,52.11-20.93,162.57,162.57,0,0,1,47.57-2.95,174.7,174.7,0,0,1,66.14,19.72c1.84.93,4.89,2.68,5.92,3.4C350.5,106,354.33,108.69,357.71,110.93ZM25.37,287.85c0-.06,0-.12,0-.17h.28l0,.18ZM16.54,387c-.08-1.83-.16-3.68-.23-5.6,0-.37.08-.74.12-1.13l.16,1.75Zm9.41-99.12h-.29c0-.06,0-.12,0-.18H26C26,287.75,26,287.81,25.95,287.87Zm-.62-5.41c0-3.84.06-7.11.21-9.22.11,3.07.21,6.08.32,9.22ZM12.76,325.87c0-1.79,0-4.18-.05-7.51Zm6.07,160.49c-1.32-2.52-3.72-7.07-3.72-15.56a31.67,31.67,0,0,0,2.42,12.15l-.09-.38c-2-4.91-2.33-10.09-2.17-16.54.11,4.25,0,8.39,1,12.19a31.39,31.39,0,0,0,4.53,10.2,32.51,32.51,0,0,0,12.49,10.71A29.89,29.89,0,0,1,18.83,486.36ZM71.22,294.08c0,1.78-.18,3.1-.28,4.63L70.82,297q0-3.93.05-7.86l.34,0C71.22,290.77,71.23,292.45,71.22,294.08Zm-6.76,14c-.11,4-.16,6.24-.18,6.75-.19.22-.33.66-.47.48-.39-.51-.8,2.16-1.11-6-.13-3.3-.24-8.55-.39-9.39a50,50,0,0,1-.22-6.82c0-1,0-2.2,0-3.36,1.2-.11,2.71-.23,4.29-.34,0,11.34,0,22.77,0,34,0,9.13-.56,20.91-1,15.5-.31-4-.58-9.93-.86-15.31,0-.69,0-3.29,0-5l.25.65ZM64,379.05c.29,9.77.32,19.71.09,24.28-.11-3.93-.24-7.64-.32-11.89,0-1.74,0-4.62.11-9.62l.12,7.45,0-.23C64,385.9,64,382.76,64,379.05Zm0,109.2c0-1.43,0-3,0-4.94,0-5.17-.06-10.34-.05-15.47q0-25.17.11-50.3a.69.69,0,0,1,.08-.25c0,.83,0,1.68,0,2.56q.1,31.51.19,63c0,1.62-.11,3.32-.11,5.06,0,.1,0,.21,0,.31Zm2.55-198.79.22,0c0,2.56,0,5.13-.05,7.7l-.11,0Q66.56,293.31,66.54,289.46Zm4.67-2h-.32v-.3h.32C71.21,287.25,71.2,287.36,71.21,287.46Zm-4.4-.17h-.05v.08h-.24v-.05l-.18,0v0l-1.76,0Zm-5.88,2.63.19,0c0,.1,0,.22,0,.33C60.63,290.12,60.15,290,60.93,289.92Zm-24.8,1.73,7-.11c4.15-.13,7.62-.34,12.34-.39a25.06,25.06,0,0,0,5.67-.53c0,1,0,2.05,0,3l.28,1.07c-.07,6.26-.18,11.84-.19,17.53s.07,11.55.12,18.41L61.14,328c0,3.3-.06,6.08-.09,8.42a21.18,21.18,0,0,0-.57,3.16c-.09.91-.21,4.73-.19,6.32.16,12.28-.13,23.58-.11,35.44,0,2.89,0,6.13,0,8.61.24,12.87.22,27.15.37,40.59.19,16.83.34,33.73.66,49.43.05,2.64.09,5.77.16,8.32H59c0-5.4-.09-11.72,0-17.16.11-8.91-.09-14.83-.19-22.07-.15-10.83-.25-22.11-.38-34.33-.11-1-.29-3-.48-4.15-.09-.53-.21.09-.29,1.23-.25,3.53-.47,10.07-.73,10.89-.53,1.69-.37,11.26-.46,17.79a92.43,92.43,0,0,0,.28,10.9c.25,2.28.5,5.84.7,10,.08,1.68.14,7.74.08,9.34-.21,6-.2,11.93-.16,17.61l-9.22.05H45l-.6,0a11.65,11.65,0,0,1-2.29-.24,14.66,14.66,0,0,1-4.33-1.42,16.71,16.71,0,0,1-6.8-6.14,17.1,17.1,0,0,1-2.63-8.83l0-16.91c-.08-19.87-.17-39.51-.25-59.37,0-5,0-10,0-15.13.09,1.17.1,2.83.12,5.64,0,3.79.14,9.1.3,10.47.2,1.73.49.17.82,0l.12,3.12c0-6.07,0-10.1.06-14.09l-.37-1.09c.09-6.41.17-12.12.26-17.93s-.1-11.82-.16-18.83l.24,2.74c0-3.38.09-6.22.12-8.61a17.24,17.24,0,0,0,.77-3.23c.12-.93.28-4.84.25-6.46-.21-12.56.17-24.12.15-36.25,0-1.34,0-2.76,0-4.14l1,0Zm-3.59-27.19-2.13.26c0-.07,0-.14,0-.2ZM88.68,88a230.63,230.63,0,0,0-15.61,19.15c-3.21,4.22-6.58,9.2-8.9,13a288.67,288.67,0,0,0-18.85,37.1l-3.47,9c-1.4,4.41-2.92,8.63-4.46,14.23-.29-1.51-1.47,1.26-4.16,11.38-1.2,5.16-2.46,10.31-3.31,15.52A267,267,0,0,0,25.6,258.7c0,.11-.06.16-.11.26,0-.85,0-1.72-.06-2.62a250.22,250.22,0,0,1,7.21-64.18c.36-1.63.93-3.27,1.47-5,1.48-5,2.84-10,4.66-14.92-.33.37-.43,0-1,1.24-1.69,3.22-3.27,7.26-4.92,11.27,1.85-7.93,1.83-7.86,4.14-12.94.33-.74,1.06-2.69,1.61-4.23,1.42-3.92,3.62-9.27,5.47-14.17,2.08-4.79,3.84-9.13,4.5-11a44.73,44.73,0,0,1,1.84-4.14,212.91,212.91,0,0,1,11.68-20C69.63,106.61,75.87,98.1,73,100.42c-2,1.65,2.44-5.58,7-11.14,2.53-2.89,4.46-5.1,6-6.88l2.36,2.49c.54.57,1.11,1.14,1.65,1.72Zm43.23,15.26a30.57,30.57,0,0,1-16.17-9,31.94,31.94,0,0,0,19.32,8.82,30.39,30.39,0,0,0,16.89-3c-7.25,3.52-10.3,3.18-13,3.46l.42,0a30.41,30.41,0,0,0,16.92-6A30.2,30.2,0,0,1,131.91,103.29Zm204.23-9.95c-4.68-2.35-9.4-4.49-14.29-6.37a177,177,0,0,0-25.07-7.74l-7.49-1.91,2.84.36A168.37,168.37,0,0,1,345.5,98.36l-1.13-.44C341.66,96.35,338.93,94.73,336.14,93.35ZM131.4,88.1a27.39,27.39,0,0,0,3.24.84,16.28,16.28,0,0,0,11.66-2.1l3.78-2.61c1.63-1.13,3.25-2.31,4.94-3.37,3.34-2.22,6.8-4.31,10.33-6.37,3.88-1.91,8-3.79,14.19-6.44,2.86-1.21,9.66-4.17,14.83-6-.08-.14,1.63-.94-.57-.31-7.23,2.44-5.54,1,9.66-3.81,19.82-6.08,42-9.05,60.93-7.92,3.79.11,8.16.73,7.4.76-4.56.43-10.11,1-16,1.85-2.55.4-8.88.44-20.58,1.81A188.8,188.8,0,0,0,155.8,83.13l-7.64,5a15.45,15.45,0,0,1-4.77,2.09,17.1,17.1,0,0,1-8.64,0C130.15,88.85,128.73,87.14,131.4,88.1ZM113.06,77.66l-.6.46.38.49,1.49,1.87c.55.72.79,1.2.33.91-1-.62-2.62-2-3.48-2.64-.18-.26-.74-.54-.6-.79l.8-.75,1.6-1.5c1.06-1,2.13-2,3.25-2.92l5.24-4.39,5.92-4.54a223.49,223.49,0,0,1,24.1-15.74C162.42,42,171.59,37.3,186.15,32.31a245,245,0,0,1,32-8.52l8.43-.32,9.56-.12c-14.77,1.47-32.68,5.57-50.07,11.09a158.75,158.75,0,0,0-14.82,6,145.05,145.05,0,0,0-14.95,8.22c-3.11,2.12-7.82,4.74-15.86,9.74-4.69,3-10.36,6.91-15,10.48-2.38,1.7-4.45,3.38-6.13,4.68a7.45,7.45,0,0,1-1.38.94,3,3,0,0,1-.71.29,14.35,14.35,0,0,0-3,2Zm246.45,2.68c1.81.81,2.78,1.36,3.78,1.85-1.19-.73-2.38-1.49-3.6-2.16A193,193,0,0,0,296.9,53.44l2.42.3a195,195,0,0,1,75.39,34,16.37,16.37,0,0,0,9.13,3.11c6.4.08,10.4-2.86,11.76-3.46,1.27-.93.92,1-4.12,3.89a17.31,17.31,0,0,1-17.14-.86l-6.71-4.77C365,83.89,362.33,82.07,359.52,80.34ZM472.77,202.09c.45,3.81,0,2.84-1.72-4.9-2.61-10-6.08-20.4-9.26-29.33-.57-1.81-1.22-3.92-1-3.62,1.55,1.8,3.18,4.15,5,6.72.81,1.09,2,4.11,3.81,9.89a241.07,241.07,0,0,1,9.19,42.54,127.73,127.73,0,0,1,1,17.18c-.22,4.17-.59,6-1,3.48-.08-.5-.18-1.86-.24-3.09l-1.17-11.64-1.83-11.87c-.2-2.15-.34-4.43-.74-7.79a78.94,78.94,0,0,0-1.6-7.87C473,201.82,472.63,200.95,472.77,202.09Zm-33-79.74-1.56-1.46,1.28,1.67A218.08,218.08,0,0,1,455,153l-.7-1c-1.64-3.23-3.22-6.55-5-9.61-6.38-11.83-14.4-23.21-22.23-33.56-7.48-9.63-9.85-13.45-2.81-6.56,1.09,1.14,3,3.3,4.36,4.88C432.44,112,436.08,116.77,439.72,122.34ZM16.19,503.85c1.09,1.25.63,1.13-1.85-1a42.53,42.53,0,0,1-5.1-5.95,45.74,45.74,0,0,1-6.41-13.43,48.73,48.73,0,0,1-1.5-7.41c-.23-2.5-.34-5.29-.33-6.75C.88,462.24.77,455,.66,447.64l.61-14.11c0-2.83,0-9.55,0-14.51-.16,0-.35-1.67-.47.4-.4,6.91-.59,5-.6-9.38,0-18.74-.33-38.71.16-55.92.1-3.45.29-7.43.41-6.75C1.53,351.48,2.25,356.54,3,362c.31,2.35.39,8.18.34,19-.06,25.82-.13,52-.2,78.05,0,2.95,0,5.88,0,8.75,0,1.55-.07,2.58,0,4.48a41.13,41.13,0,0,0,.42,5.54A45.18,45.18,0,0,0,9.8,495.54,59.44,59.44,0,0,0,16.19,503.85Zm151.46-52c.57-3,1.12-7,1.43-10.31,0,1.83,0,3.78-.12,6.12a47.55,47.55,0,0,1-.61,6.85,45.58,45.58,0,0,1-1.37,7,52.71,52.71,0,0,1-2.19,7.07,61.44,61.44,0,0,1-17.24,25.06,84.34,84.34,0,0,1-7,5.62,81.54,81.54,0,0,1-7.75,4.65,69.25,69.25,0,0,1-18,6.78,36.61,36.61,0,0,1-8.08,1.14c-3.54.27-6.79.14-11.59.13-11-.12-27.12.1-30-.62-1.38-.35-12.39-.66-18.34-1-1.82-.09-3.2-.33-2.11-.41l7-.64L81.58,509l14.19-.13c4.68-.06,9.12,0,14.35-.42,13.28-1.68,24.27-5.81,36.72-16.9,8.65-7.62,15.64-20.15,18-30.83A61.19,61.19,0,0,0,167.65,451.82Zm202.19-146c-.9,1.39-1.68,2.82-2.44,4.26C368.15,308.59,369,307.16,369.84,305.79ZM470.3,506.19a42.31,42.31,0,0,0,11.31-1.14,32.94,32.94,0,0,0,10.59-4.85,34.93,34.93,0,0,0,13.35-18.46,38.32,38.32,0,0,0,1.45-11.2q-.08-5.16-.15-10.23c-.16-10.25-.23-25-.85-22.27-.34,1.45-.36-2.3-.26-15.49,0-3.22,0-6.75,0-10.13V358.65c0-1.91.09-3.69.16-5.15.33-6.93.35-14,.19-20.7a32,32,0,0,0-.24-3.39c0-1.68.05-3.36.08-5L506,326l-.08-28.6c.22-9.42.22-20.52-.09-29.75,0-2.12,0-5.15-.07-7.75.07-6.59-.1-13.86-.31-21-.48-7.15-1-14.29-2-21.35a247.58,247.58,0,0,0-7.76-36.06,292.78,292.78,0,0,0-10.26-29.55,209,209,0,0,0-21.24-40l-2.47-3.68c-4.89-8.09-7.29-9.8-11-14.46a8.39,8.39,0,0,0-2.92-2.63c-.47-.27.58,1.31-.15.71-1.81-1.47-6.61-6.41-5.81-4.91,1,2-1.84-1.3-4.56-3.7,2.44,2.68,4.17,5.11,7,8.53-7.59-8.4-3.68-2.7-13.2-12.62l3,3.47c-3.08-2.26-5.86-4.29-9-6.41,6.49,6.7,11.12,11.63,15.36,16.79-.21.19-1.65-1-.41.83,3.39,4.74,10.35,13.52,15,20.25a118.94,118.94,0,0,1,7.67,12.55c1.33,3,3.28,6.39,5.74,11l3.52,7.18-.12.08c-3.57-7.18-7.46-14.2-11.7-21,2.7,4.45,5,8.83,7.39,13.11a252.74,252.74,0,0,1,14.33,32.9c3.09,8.88,5.51,20.75,3.5,15.56-1.4-3.9-3.68-9.46-5.74-14.53l-1.77-4.76.54.5c-1.55-3.54-2.56-6.44-4.52-10.4,1.58,3.76,2.15,6,2.37,6.43-.16.3-.17.79-.4.69-.69-.27-.15,2.4-3.6-5-1.5-3-3.76-7.72-4.28-8.4a43.53,43.53,0,0,1-3.29-6,76.3,76.3,0,0,0-5.06-8.88c-1-1.37-.51.11-.7.43L457.26,133c2.91,5.13,4.76,8.58,6.42,12.09l.81.78c2.8,5.57,4.73,10.81,7,16,2.07,5.31,4.27,10.69,6.37,17.21l-1.07-2.45c1,3.14,1.87,5.77,2.4,8a16.68,16.68,0,0,0,.1,3.25c.12.9,1,4.6,1.41,6.12,3.1,11.81,4.54,23,5.81,34.69l.67,8.53c1,11.84.8,25.3,1,38.12h-2.62c-.06-4.34-.13-8.75-.2-13.32-.14-1-.38-3-.63-4.2-.12-.54-.28.09-.39,1.25-.33,3.58-.63,10.19-1,11a22.3,22.3,0,0,0-.48,5.26h-5.23c2.61.53-4.12.81-14.4.85-2.53.61-4.13,1.14-7.11,1.67-4.08.72,4.22,1,25.58.84h1.1c0,1.89,0,3.86,0,5.79l-3.53,0-8.39.27c-4.14.21-5.67.46-6.36.7-.52.18,2.22.42-.2.55-10.58.57-4.73,1,6.6,1.34l-9.54.46,16.28.37h5.09a70.59,70.59,0,0,0,.38,10.89c.34,2.31.66,5.91.94,10.07.11,1.7.18,7.83.11,9.45-.51,10.8-.11,21.65-.13,30.44l1-5.62,1.1-4.93c0-5.84-.14-13.24,0-19.45.15-9-.12-15-.26-22.33q-.06-4.21-.13-8.52h2.64l.7,39.78c.16,6,.23,14.67.85,13.08.34-.85.36,1.35.26,9.1,0,1.89,0,4,0,6v45.1l-.18,6.62-.09-.95c0,4.51,0,9,.06,13.57-.24,10.66-.28,21.46-.13,31.7.08,5.72.45,7.64.69,11.28l.19-1.08c0,2.71,0,5.6-.07,8.52a18.72,18.72,0,0,1-.7,5,15.78,15.78,0,0,1-4,7,17.07,17.07,0,0,1-6.79,4.28,15.63,15.63,0,0,1-4.41.87l-1.18,0h-2.1l-4.44,0c-3.25,0-6.53,0-9.82,0,0-.58,0-1.18,0-1.76,0-5.13-.07-10.36-.12-16.51l.18,2.4c0-3,.06-5.45.09-7.55a17.24,17.24,0,0,0,.57-2.83c.09-.81.21-4.24.19-5.66-.16-11,.13-21.14.11-31.77,0-2.59,0-5.5,0-7.72-.24-11.53-.22-24.34-.37-36.39-.19-15.09-.34-30.24-.66-44.31-.12-5.33-.17-13-.64-11.59-.25.76-.27-1.2-.2-8.06,0-1.68,0-3.51,0-5.27q0-13.72,0-27.45c-.59.05-1.18.1-1.78.12.08,5.51.15,11.17.17,17.15,0,2.86.06,5.71.11,8.43.07,4.05.16,8,.27,13.08-.57-1.18-.71,1.44-.69,10.59,0,4.63.06,9.27.05,13.87q0,22.56-.11,45.09c0,.1,0,.14-.08.23,0-.74,0-1.5,0-2.29q-.1-28.25-.19-56.5c0-1.45.11-3,.12-4.54,0-4.53,0-9.1,0-13.66-.14.4-.3.13-.43,1.32-.34,3.13-.66,6.9-1,10.64-.31-7-.31-7,0-11.78.05-.7.08-2.51.1-3.92.07-7.24-.25-20.09-.57-23.44-.09-.93-.22-2.47-.23-3.91v-.1l3-.36h-5.26c-.92-.06-1.81-.08-2.77-.19l-.34-.07c0,.09,0,.17,0,.26h-29.1c0-.29,3-.64-.58-.86a70,70,0,0,0-8.11-.05,48.75,48.75,0,0,0-27.18,11.28,61,61,0,0,0-14,17.1c-2.55,4.28-4.69,10-5.67,18.06-.2,2-.24,4.08-.38,6.16l0,6.71-.15,0c-.1-6.94-.08-13,1.3-19.08A52.71,52.71,0,0,1,367.4,310a53.45,53.45,0,0,0-5.64,17.51,56.39,56.39,0,0,0-.55,7l0,7.52v15.14c0,10.08,0,20.13-.05,30.07-.06,15.73-.75,36-1.3,26.71-.42-7-.77-17.11-1.14-26.37,0-1.2,0-5.67,0-8.62l.33,1.12c-.12-6.54-.21-11.74-.34-19.23-.14,6.91-.22,10.75-.24,11.62-.25.38-.44,1.14-.62.83-.51-.88-1.07,3.72-1.49-10.26-.17-5.69-.32-14.73-.52-16.17-.28-2-.27-4.9-.29-11.75-.21-6.61,1.81-15.65,2.37-18,.81-2.86-.33-.52-.77-.24l.53-1.66A66.4,66.4,0,0,0,354.21,336l.37,1.84c-.09,10.79-.17,20.4-.26,30.2s.1,19.9.16,31.71l-.24-4.61c0,5.69-.09,10.47-.12,14.51a46.15,46.15,0,0,0-.77,5.44c-.12,1.56-.28,8.15-.25,10.88,0,5.29,0,10.47.06,15.59a81.23,81.23,0,0,0,1.25,16,61.9,61.9,0,0,0,14.11,28.64,59.3,59.3,0,0,0,11.74,10.38,60.69,60.69,0,0,0,34.25,10l34.53-.2Zm6.45-364A247.75,247.75,0,0,0,459,110.75l.6.5c1.13,1.62,2.1,3.35,3.14,5,1.72,2.8,3.59,5.47,5.22,8.34,2.74,4.79,5.59,9.66,7.89,14.58.83,1.68,1.24,3,1.84,4.53Zm15.41,216c-.11-4.57-.22-9-.35-14.77.75,1.33.94-1.62.92-12,0-5.23,0-10.46-.07-15.66q0-13.67.08-27.31l.26,0-.16,2.72c0,3.29,0,6.65-.07,10.05,0,8.35,0,16.88,0,25.18.06,12.43.13,25.11.2,39a32.67,32.67,0,0,1-.71-3.4C492.2,360.77,492.18,359.42,492.16,358.16Zm.88-73.82-.29,0q0-2.82,0-5.65H493Zm-.26-44.19c.13,4.35.15,8,0,10.36L492,238.45c-.17-1.75-.28-4.67-.58-9.75l.71,7.53,0-.24c-.29-3.18-.41-6.37-.88-10.1C492.06,230.8,492.44,235.81,492.79,240.14Zm0,24.75c0-.11.06-.16.11-.26,0,.84,0,1.7.06,2.59l0,8.14h-.23Q492.79,270.13,492.81,264.89Zm-7.16,19.62c0-1.91-.06-3.82-.08-5.77h2.61q.05,2.87.1,5.74ZM454.31,404.65c.11,3.52.24,6.85.32,10.66,0,1.56,0,4.14-.11,8.63l-.12-6.68,0,.21c0,2.81,0,5.63,0,9C454.1,417.66,454.07,408.75,454.31,404.65ZM454.13,484c.19-.2.33-.59.47-.43.37.44.76-1.63,1.07,4.51H454C454.08,485.72,454.12,484.33,454.13,484Zm-1-21.59c.31,3.63.58,8.9.86,13.73,0,.62,0,2.95,0,4.49l-.25-.58.2,8h-1.81c0-3.94,0-7.9,0-11.79C452.15,468.09,452.67,457.53,453.08,462.38Zm-6.33-175.8a19.5,19.5,0,0,1-.59-1.93l.57-.07C446.73,285.23,446.74,285.88,446.75,286.57ZM367.69,336.7c0,3.07-.24,5.34-.37,8l-.16-3c0-2.41,0-5.08.08-7.27a48.19,48.19,0,0,1,.53-6.07,49.21,49.21,0,0,1,3.16-11.67,48.08,48.08,0,0,1,14.42-18.94l-.67.76a47.23,47.23,0,0,0-5.6,5.45,44.53,44.53,0,0,0-7,11A48.93,48.93,0,0,0,367.69,336.7ZM385,493.81a49.45,49.45,0,0,1-10.23-8.33,55,55,0,0,0,7.34,6.1l-.28-.27a56.61,56.61,0,0,1-12-11.58,58,58,0,0,0,17.86,15,63,63,0,0,0,15.73,5.85A54,54,0,0,1,385,493.81Zm29.57-5.44c-1.47,0-2.24-.12-3.39-.15a43.66,43.66,0,0,1-6.3-.81,45.85,45.85,0,0,1-11.83-4.56,43.93,43.93,0,0,1-17.33-18.46A45.7,45.7,0,0,1,372,453.9c-.3-1.83-.67-3.66-.81-5.52s-.27-3.49-.23-6.23c0-9.88-.08-19.75-.12-29.69,0-16.78.09-34.73.13-50.41.05-6.18.11-12.29.16-18.38l.08-9a48.47,48.47,0,0,1,.65-6.8,44.88,44.88,0,0,1,12.17-24.08,31.48,31.48,0,0,1,4-3.48,55.69,55.69,0,0,1,10.81-6,25.56,25.56,0,0,1,4.2-1.58,22.79,22.79,0,0,1,4.7-1.12,24,24,0,0,0,4.66-1.06c.62-.22-1.71-.31-.57-.55a64.43,64.43,0,0,1,7.85-.78c2.88-.22,5-.43,3.66-.61-3.38-.47,3.52-.68,9.35-1L415,287.34c18.27-.33,7.19-1.26,29.52-1.46l-7.49-.14,8.79-1c-.2.88-.35,4.05-.4,12.38l-.61-1.83c-.11,6.69-.13,13.8-.31,18.16-.25,6.14-.26,12.42-.14,18.35a53.06,53.06,0,0,0,.52,5.87l.14-.56c-.08,5.64-.09,12.76-.27,16.63-.41,9.23-.54,24.22-.22,35.82.05,1.87.05,4.56.05,6.86,0,12,0,24,0,35.92,0,10.34.16,20.56.19,30.9,0,8.29,0,17.09-.08,24.95-4.47,0-8.87.1-13,.18l-12.89.07Zm12.14,13.16,4.31-.06,26.52-.07,13.26,0a32.48,32.48,0,0,0,12.6-1.86,29.52,29.52,0,0,0,17.42-17.75,34.18,34.18,0,0,0,1.83-12.85l0-13.58c0-2.79.1-5.72.15-8.72v-9.48c.35-9.34.3-20.14.33-30.45-.06-7.3-.13-14.75-.2-22.92a7.6,7.6,0,0,1,.59,1.63c0,2.5,0,4.92,0,7.48.05,5.49.1,11,.15,16.2.11,7.79.22,15.36.35,25.14-.75-2.27-.94,2.76-.92,20.36l0,13.35a36,36,0,0,1-1.46,12.87A30.43,30.43,0,0,1,489.3,497a28.35,28.35,0,0,1-9.46,4,45.41,45.41,0,0,1-10.34.7l-42.33-.08A1.32,1.32,0,0,1,426.74,501.52ZM357.65,315.28c.39-1.18.69-2.29,1.18-3.55C358.31,313.25,357.94,314.36,357.65,315.28Zm23.54,191c7.68,4.4,11.57,5.69,6.17,4.21-1.05-.3-3.72-1.61-6.13-2.76A71.33,71.33,0,0,1,347.66,469c-1.51-4.6-2.46-9.64-3.23-17.11-.07-1.71-.18-4.58-.31-7.79,0-2.66,0-5.58,0-8.06-.16,0-.35-1.67-.47.4-.4,6.91-.59,5-.6-9.38,0-18.74-.33-38.71.16-55.92.1-3.45.29-7.43.41-6.75.73,4.11,1.46,9.17,2.18,14.64.31,2.35.39,8.18.34,19,0,12.91-.1,25.92-.15,39v4.89c0,1.58,0,3.23.1,5.3a76.73,76.73,0,0,0,1.29,11.62,70.84,70.84,0,0,0,8.37,21.69C362.71,492.84,373.64,501.72,381.18,506.24ZM512,449.08c0,4.39,0,8.89,0,13.45s.22,8.78-.74,15a42.84,42.84,0,0,1-2.74,9.58,43.91,43.91,0,0,1-5,8.72A41.38,41.38,0,0,1,487,509.1a30.78,30.78,0,0,1-8.76,2.52,26.49,26.49,0,0,1-3,.28c-1.15.08-2.19.11-3,.1l-6.29,0c-11-.12-27.12.1-30-.62-1.38-.35-12.39-.66-18.34-1-1.92-.11-3-.28-2.08-.4,1.92-.26,5.38-.51,7-.65l29.77-.25,14.19-.13,7-.07a38.63,38.63,0,0,0,8.14-1,36.37,36.37,0,0,0,17.89-10.46,38.41,38.41,0,0,0,10-21.09,40.16,40.16,0,0,0,.38-4.78c0-1.38,0-2.79,0-4.21,0-2.82,0-5.7,0-8.56,0-5.71,0-11.35-.07-16.32l1.1-8.39,1-9.57C511.92,431.93,512,440.29,512,449.08ZM343,341.54l-.18-2.2c0-1.73,0-3.13,0-5.14l.31-6.21a77.33,77.33,0,0,1,2.25-12.11,72.66,72.66,0,0,1,24.81-38,67.72,67.72,0,0,1,41.34-15c1.81-.08,3.17-.05,4.35,0l3.57.11,6,.24c3.51.17,6,.37,7.21.56,2.47.4,0,.81-8.67,1.12l-11.86.25a67.33,67.33,0,0,0-37.65,12.35c1.58-1.47,2.62-2.11,3.56-2.88a44.32,44.32,0,0,0-3.77,2.59,71.34,71.34,0,0,0-30,46.58,67.3,67.3,0,0,0-1.09,9.58C343.07,336.69,343.09,338.81,343,341.54Zm117.88,2.7c-.06,1.44,0,6.87.08,8.37.21,3.69.45,6.88.7,8.93a74.33,74.33,0,0,1,.28,9.77c-.09,5.85.07,14.44-.46,16-.26.73-.48,6.6-.73,9.76-.08,1-.2,1.58-.29,1.11-.19-1-.37-2.86-.48-3.72-.13-11-.23-21.06-.38-30.78-.1-6.49-.3-11.8-.19-19.79.08-5.5,0-12.06,0-17.23.28-1.48.55-2.8.82-4.37s.49-3.17.77-5C460.94,325.06,461.24,334.68,460.86,344.24Z"/></svg>